<svg xmlns="http://www.w3.org/2000/svg" fill-rule="evenodd" viewBox="0 0 100 100">
    <path d="M83.5 18.25h-10c-.176 0-.343.036-.5.092v-1.725c0-2.822-2.243-5.118-5-5.118s-5 2.296-5 5.118v1.633h-8v-1.633c0-2.822-2.243-5.118-5-5.118s-5 2.296-5 5.118v1.633h-8v-1.633c0-2.822-2.243-5.118-5-5.118s-5 2.296-5 5.118v1.633h-9.5a1.5 1.5 0 0 0-1.5 1.5v64a1.5 1.5 0 0 0 1.5 1.5h66a1.5 1.5 0 0 0 1.5-1.5v-64a1.5 1.5 0 0 0-1.5-1.5zM66 16.617c0-1.168.897-2.118 2-2.118s2 .95 2 2.118v6.765c0 1.168-.897 2.118-2 2.118s-2-.95-2-2.118v-6.765zm-18 0c0-1.168.897-2.118 2-2.118s2 .95 2 2.118v6.765c0 1.168-.897 2.118-2 2.118s-2-.95-2-2.118v-6.765zm-18 0c0-1.168.897-2.118 2-2.118s2 .95 2 2.118v6.765c0 1.168-.897 2.118-2 2.118s-2-.95-2-2.118v-6.765zM82 82.25H19v-61h8v2.132c0 2.822 2.243 5.118 5 5.118s5-2.296 5-5.118V21.25h8v2.132c0 2.822 2.243 5.118 5 5.118s5-2.296 5-5.118V21.25h8v2.132c0 2.822 2.243 5.118 5 5.118s5-2.296 5-5.118v-2.224c.157.056.324.092.5.092H82v61z"/>
    <path d="M40.045 39.603a1.503 1.503 0 0 0-1.649.381l-8 8.687a1.5 1.5 0 1 0 2.207 2.032L38 44.843V70.75a1.5 1.5 0 1 0 3 0V41c0-.618-.379-1.173-.955-1.397zM68.5 59.25H65V40.356c0-.674-.449-1.265-1.099-1.445a1.498 1.498 0 0 0-1.687.672L49.943 59.977a1.5 1.5 0 0 0 1.285 2.274H62v8.5a1.5 1.5 0 0 0 3 0v-8.5h3.5a1.5 1.5 0 0 0 0-3.001zm-6.5 0h-8.118L62 45.758V59.25z"/>
</svg>
