<svg xmlns="http://www.w3.org/2000/svg" fill-rule="evenodd" viewBox="0 0 100 100">
    <path d="M93.452 6.664a1.501 1.501 0 0 0-2.121 0L73.229 24.772l-2.256-2.255a1.5 1.5 0 0 0-2.122.001l-6.014 6.018-4.578-4.579a1.5 1.5 0 0 0-2.122 0l-6.481 6.481-.009.006-.006.009-8.533 8.534c-.005.005-.011.006-.016.01s-.006.011-.01.016l-8.521 8.521c-.006.006-.014.007-.019.013-.005.006-.007.013-.013.019l-8.516 8.516c-.007.007-.016.008-.023.015s-.009.016-.015.023l-6.765 6.765a1.5 1.5 0 0 0 0 2.122l4.579 4.578-8.102 8.1-4.58-4.581a1.5 1.5 0 1 0-2.121 2.121l12.262 12.263.005.008c.002.003.005.003.008.005l5.833 5.834c.293.293.677.439 1.061.439s.768-.146 1.061-.439a1.5 1.5 0 0 0 0-2.121l-4.781-4.779 8.104-8.101 4.582 4.582c.293.293.677.439 1.061.439s.768-.146 1.061-.439l38.923-38.928a1.5 1.5 0 0 0 0-2.121l-4.577-4.577 6.014-6.025a1.501 1.501 0 0 0-.001-2.121l-2.252-2.25L93.452 8.785a1.5 1.5 0 0 0 0-2.121zM20.314 84.313l-4.507-4.507 8.102-8.101 4.507 4.507-8.102 8.101zm15.868-4.58-11.202-11.2-.007-.011-.011-.007-4.57-4.569 4.663-4.663 5.65 5.648c.293.293.677.439 1.061.439s.768-.146 1.061-.439a1.501 1.501 0 0 0 0-2.121l-5.65-5.648 6.43-6.43 5.646 5.646c.293.293.677.439 1.061.439s.768-.146 1.061-.439a1.5 1.5 0 0 0 0-2.121l-5.646-5.646 6.43-6.43 5.652 5.647c.293.293.676.439 1.06.439s.768-.146 1.061-.44a1.5 1.5 0 0 0-.001-2.121L44.28 40.06l6.432-6.432 5.647 5.648c.292.293.677.439 1.061.439s.768-.146 1.061-.439a1.5 1.5 0 0 0 0-2.121l-5.647-5.648 4.367-4.368 4.571 4.572c.003.003.003.006.006.008l6.632 6.631.003.003 4.573 4.574-36.804 36.806zm33.286-44.566-4.509-4.51 4.954-4.958 2.249 2.248.005.008.008.005 2.246 2.245-4.953 4.962z"/>
</svg>
