<?xml version="1.0" encoding="UTF-8"?> <svg xmlns="http://www.w3.org/2000/svg" width="80" height="80" viewBox="0 0 80 80" fill="none"> <path d="M28.4785 2.38855V11.0236M28.4785 77.9653V66.4339M40.127 1.1405V27.1268M40.127 78.7172V76.8313M51.5215 3.1405V25.3516M28.4785 20.7869V30.9307" stroke="#F2D9D9" stroke-width="1.6"></path> <path d="M26.35 3.45547C30.5984 1.86793 35.1978 1 40 1C61.5391 1 79 18.4609 79 40C79 61.5391 61.5391 79 40 79C18.4609 79 1 61.5391 1 40C1 34.8281 2.00672 29.8914 3.8349 25.375" stroke="#FF666A" stroke-width="1.6"></path> <path d="M73 60.6724V32.0502C58.7277 23.9833 41.2723 23.9833 27 32.0502V60.6724C27.735 68.268 32.2859 72.967 39.0763 76.4489L43.5 78.7172" stroke="#FF666A" stroke-width="1.6"></path> <path d="M51.2806 77.3695L59.024 73.2534C64.6334 70.2716 68.3928 66.5347 69 60.0301V35.2315C63.1049 31.7773 56.5525 30.0502 50 30.0502C43.4475 30.0502 36.8951 31.7773 31 35.2315V60.0301C31.6072 66.5347 35.3666 70.2716 40.976 73.2534L48.9649 77.5L49.6452 77.7348" stroke="#FF666A" stroke-width="1.6"></path> <path d="M58 36.2439C60.2166 36.8599 62.3925 37.6844 64.5 38.7175M51 35C52.2487 35.1008 53.4938 35.2646 54.7306 35.4914" stroke="#FF666A" stroke-width="1.6"></path> <path d="M45.5561 57.0145L46.1326 57.5654L46.6854 56.9908L58.0473 45.1795L60.861 47.8684L46.0905 62.9121L39.1579 56.2872L41.9765 53.5938L45.5561 57.0145Z" stroke="#FF666A" stroke-width="1.6"></path> <path d="M10 10.8H10.8V10V0.8H21.2V10V10.8H22H31.2V21.2H22H21.2V22V31.2H10.8V22V21.2H10H0.8V10.8H10Z" stroke="#FF666A" stroke-width="1.6"></path> <path d="M13.7109 3.00864V5.00864" stroke="#FF666A" stroke-width="1.6"></path> <path d="M13.7109 6.10278V8.10278" stroke="#FF666A" stroke-width="1.6"></path> </svg> 