<?xml version="1.0" encoding="UTF-8"?> <svg xmlns="http://www.w3.org/2000/svg" width="80" height="81" viewBox="0 0 80 81" fill="none"> <path d="M2 31.5H35M59 31.5H78" stroke="#F2D9D9" stroke-width="1.6"></path> <path d="M2 49.5H21M42 49.5H78" stroke="#F2D9D9" stroke-width="1.6"></path> <path d="M21.1045 74.625C26.7022 77.7312 33.1445 79.5 40 79.5C61.5391 79.5 79 62.0391 79 40.5C79 18.9609 61.5391 1.5 40 1.5C18.4609 1.5 1 18.9609 1 40.5C1 47.7064 2.95457 54.4563 6.3625 60.2485" stroke="#FF666A" stroke-width="1.6"></path> <path d="M60.7502 23.6581C62.1372 23.1164 65.8716 20.7985 67.5653 19.7072L71.7609 17M60.7502 23.6581C60.0626 22.9452 58.3335 20.4102 56.9177 15.9735M60.7502 23.6581C60.8715 24.219 61.1263 25.4271 61.1746 25.7715C61.1869 25.9937 61.34 26.6249 61.3269 27.3989C61.3101 28.395 60.8222 29.0451 60.5121 29.3879L46.7154 44.3458M56.9177 15.9735C57.5323 15.62 59.5839 14.5933 62.8734 13.3153C63.8472 12.937 65.3193 12.3357 67 11.6376M56.9177 15.9735C56.5047 15.7085 56.1895 15.7288 56.0835 15.7721L49.728 16.6881C49.4574 16.737 48.0481 17.0753 47.3426 17.8309C46.6371 18.5865 38.0273 28.0704 33.8106 32.718M33.8106 32.718C33.0979 33.5659 31.9474 34.9414 30.804 36.3223M33.8106 32.718C34.962 35.2697 39.1549 41.1678 46.7154 44.3458M24.3081 64.2315C21.1687 63.3163 17.0135 59.2453 15.7711 56.4619C15.8052 56.4147 16.3787 55.6485 16.4135 55.6003M24.3081 64.2315L20.4273 67.7503M24.3081 64.2315C25.5042 63.6435 28.5793 61.5009 33.6477 56.995C36.4315 54.5452 42.4082 48.6891 45.0486 46.0673C45.5584 45.5476 46.1866 44.8919 46.7154 44.3458M30.804 36.3223C29.6464 37.7204 28.496 39.1239 27.8146 39.9906C26.4737 41.6963 19.9029 50.7743 16.4135 55.6003M30.804 36.3223C32.5585 38.7034 35.8749 43.5709 43.3466 47.7488M16.4135 55.6003C16.2467 55.6835 15.27 56.7095 14.8538 57.2743C14.4377 57.839 13.0758 59.6394 12.4468 60.4689M12.4468 60.4689C11.8971 61.0648 10.7053 62.4937 10.3353 63.4427C9.96537 64.3918 9.52164 66.8479 9.34601 67.9573C9.31679 68.2012 9.3767 68.8132 9.8502 69.3095C10.0888 69.5597 10.4773 69.9388 10.8944 70.3198C11.6648 71.0233 12.5841 71.6216 13.6075 71.4191C13.7652 71.3879 13.9599 71.3467 14.1833 71.2945C15.2109 71.0538 16.8449 70.5767 18.2655 69.7421C18.515 69.5955 18.758 69.4379 18.9899 69.2686C19.2795 69.0258 19.9724 68.3821 20.4273 67.7503M12.4468 60.4689C12.9638 61.2511 13.6491 62.8381 15.9281 64.9896C17.6195 66.5865 19.571 67.5548 20.4273 67.7503" stroke="#FF666A" stroke-width="1.6"></path> <path d="M9.64624 74.4671C7.64139 74.5643 5.93734 73.0179 5.84013 71.013M9.88092 79.3072C5.20295 79.5341 1.22682 75.9257 1 71.2477" stroke="#FF666A" stroke-width="1.6"></path> </svg> 