<?xml version="1.0" encoding="UTF-8"?> <svg xmlns="http://www.w3.org/2000/svg" width="81" height="81" viewBox="0 0 81 81" fill="none"> <path d="M79 39.9475L53 40.057M77.3057 29.7471L49.5 29.866M77.5265 50.3751L49.5 50.5027M2.5 30.0266L19.5 30.0042M1 40.2891L18.5 40.265M2.5 50.7167L20.5 50.6894" stroke="#F2D9D9" stroke-width="1.6"></path> <path d="M45 7.24719L45.6209 6.74272L45.3202 6.37266L44.8517 6.46106L45 7.24719ZM28.5 74.2472L27.849 74.7122L28.7621 75.9906L29.2589 74.5002L28.5 74.2472ZM32.5 62.2472L31.7411 61.9942L32.5 62.2472ZM48.5 51.2472L48.0562 50.5816C47.7654 50.7754 47.6341 51.1357 47.732 51.4712L48.5 51.2472ZM48.5 47.2472L48.2191 46.4981C47.938 46.6035 47.7396 46.8575 47.7052 47.1557C47.6709 47.4539 47.8064 47.7463 48.0562 47.9128L48.5 47.2472ZM53 44.2472L52.2411 43.9942L53 44.2472ZM44.8517 6.46106C40.3249 7.31518 33.5666 9.81473 27.9227 14.5599C22.2578 19.3226 17.7 26.3668 17.7 36.2472H19.3C19.3 26.9276 23.5755 20.3051 28.9523 15.7845C34.3501 11.2463 40.8418 8.84587 45.1483 8.03332L44.8517 6.46106ZM17.7 36.2472C17.7 55.6131 24.4183 69.9092 27.849 74.7122L29.151 73.7822C25.915 69.2519 19.3 55.2812 19.3 36.2472H17.7ZM29.2589 74.5002L33.2589 62.5002L31.7411 61.9942L27.7411 73.9942L29.2589 74.5002ZM33.2589 62.5002C33.5674 61.5747 34.2104 60.3094 35.0962 59.4817C35.5317 59.0747 35.9947 58.8025 36.4764 58.6976C36.9441 58.5958 37.4918 58.6375 38.1422 58.9627L38.8578 57.5317C37.9082 57.0568 36.9892 56.9485 36.1361 57.1342C35.2969 57.3169 34.5849 57.7697 34.0038 58.3127C32.8562 59.385 32.0992 60.9197 31.7411 61.9942L33.2589 62.5002ZM38.1422 58.9627C39.1783 59.4808 40.573 60.0654 42.035 60.4574C43.4814 60.8453 45.0761 61.0675 46.4733 60.7809C47.9258 60.4829 49.1696 59.6258 49.7351 57.939C50.2735 56.3329 50.1592 54.0789 49.268 51.0232L47.732 51.4712C48.5908 54.4155 48.6015 56.2865 48.218 57.4304C47.8616 58.4936 47.1367 59.0115 46.1517 59.2135C45.1114 59.4269 43.7998 59.2741 42.4494 58.912C41.1145 58.554 39.8217 58.0136 38.8578 57.5317L38.1422 58.9627ZM48.9438 51.9128L50.6957 50.7449L49.8082 49.4136L48.0562 50.5816L48.9438 51.9128ZM50.6957 47.7495L48.9438 46.5816L48.0562 47.9128L49.8082 49.0808L50.6957 47.7495ZM48.7809 47.9963C49.4799 47.7341 50.5494 47.2651 51.5074 46.6982C51.986 46.415 52.458 46.095 52.8465 45.7504C53.2199 45.4192 53.5926 44.9991 53.7589 44.5002L52.2411 43.9942C52.2074 44.0953 52.0843 44.2877 51.7848 44.5534C51.5004 44.8057 51.1223 45.0669 50.6926 45.3212C49.834 45.8293 48.8535 46.2602 48.2191 46.4981L48.7809 47.9963ZM53.7589 44.5002C53.9995 43.7786 53.7206 43.1962 53.4571 42.8111C53.3318 42.6279 53.1826 42.45 53.0757 42.3186C52.9567 42.1723 52.8724 42.0629 52.811 41.9606C52.7105 41.7931 52.707 41.7174 52.7565 41.5959C52.8409 41.3888 53.1249 40.9982 53.965 40.3982L53.035 39.0962C52.1251 39.7461 51.5341 40.3556 51.2747 40.9922C50.9805 41.7145 51.1645 42.3263 51.439 42.7838C51.5651 42.9939 51.7151 43.1815 51.8344 43.3282C51.9658 43.4897 52.0589 43.6009 52.1366 43.7146C52.2794 43.9232 52.2505 43.9657 52.2411 43.9942L53.7589 44.5002ZM53.965 40.3982C54.8443 39.7701 55.5271 39.2303 55.9851 38.7365C56.4338 38.2525 56.7967 37.6741 56.7342 36.9873C56.6739 36.3236 56.2352 35.8181 55.7886 35.4221C55.3257 35.0115 54.6832 34.5745 53.9438 34.0816L53.0562 35.4128C53.8168 35.9199 54.3618 36.2953 54.727 36.6192C55.1085 36.9575 55.1386 37.1083 55.1408 37.1321C55.1408 37.1328 55.16 37.2731 54.8118 37.6486C54.4729 38.0141 53.9057 38.4743 53.035 39.0962L53.965 40.3982ZM53.9438 34.0816C52.4091 33.0585 50.8303 32.0302 49.8777 30.4051C48.9603 28.8403 48.5619 26.5912 49.7589 23.0002L48.2411 22.4942C46.9381 26.4032 47.2897 29.1541 48.4973 31.2143C49.6697 33.2142 51.5909 34.4359 53.0562 35.4128L53.9438 34.0816ZM49.7589 23.0002C50.8361 19.7687 50.3285 16.3652 49.3174 13.4824C48.3047 10.5952 46.7564 8.14026 45.6209 6.74272L44.3791 7.75167C45.4103 9.02079 46.8619 11.3159 47.8076 14.012C48.7548 16.7125 49.1639 19.7257 48.2411 22.4942L49.7589 23.0002ZM50.6957 50.7449C51.7644 50.0324 51.7644 48.462 50.6957 47.7495L49.8082 49.0808C49.9269 49.1599 49.9269 49.3344 49.8082 49.4136L50.6957 50.7449Z" fill="#FF666A"></path> <path d="M77.723 27.5847C79.197 31.6967 80 36.1281 80 40.7472C80 62.2863 62.5391 79.7472 41 79.7472C19.4609 79.7472 2 62.2863 2 40.7472C2 19.2081 19.4609 1.74719 41 1.74719C45.0763 1.74719 49.0065 2.37257 52.7 3.53262" stroke="#FF666A" stroke-width="1.6"></path> <circle cx="67" cy="13.7472" r="12.2" stroke="#FF666A" stroke-width="1.6"></circle> <path d="M73 9.74719L64.0902 17.7472L61 14.9726" stroke="#FF666A" stroke-width="1.6"></path> <path d="M48.1055 28.7472C48.9969 29.3098 52.0898 30.5514 53.4462 30.0612" stroke="#FF666A" stroke-width="1.6"></path> </svg> 