<?xml version="1.0" encoding="UTF-8"?> <svg xmlns="http://www.w3.org/2000/svg" width="40" height="40" viewBox="0 0 40 40" fill="none"> <circle cx="20" cy="20" r="20" fill="#575757"></circle> <path d="M8.29126 20.8716C8.12481 20.608 8.04158 20.4762 7.995 20.273C7.96 20.1203 7.96 19.8795 7.995 19.7268C8.04158 19.5236 8.12481 19.3918 8.29126 19.1282C9.66676 16.9503 13.761 11.4443 20.0005 11.4443C26.2399 11.4443 30.3342 16.9503 31.7097 19.1282C31.8762 19.3918 31.9594 19.5236 32.006 19.7268C32.041 19.8795 32.041 20.1203 32.006 20.273C31.9594 20.4762 31.8762 20.608 31.7097 20.8716C30.3342 23.0495 26.2399 28.5554 20.0005 28.5554C13.761 28.5554 9.66676 23.0495 8.29126 20.8716Z" stroke="white" stroke-width="2" stroke-linecap="round" stroke-linejoin="round"></path> <path d="M20.0005 23.6666C22.0255 23.6666 23.6672 22.0249 23.6672 19.9999C23.6672 17.9748 22.0255 16.3332 20.0005 16.3332C17.9754 16.3332 16.3338 17.9748 16.3338 19.9999C16.3338 22.0249 17.9754 23.6666 20.0005 23.6666Z" stroke="white" stroke-width="2" stroke-linecap="round" stroke-linejoin="round"></path> </svg> 