<?xml version="1.0" encoding="UTF-8"?> <svg xmlns="http://www.w3.org/2000/svg" width="80" height="81" viewBox="0 0 80 81" fill="none"> <path d="M61.0911 7.28766C55.3506 13.0696 50.268 18.189 45.5 22.9914M70.2103 14.6418L57.0707 27.8735M76 24.9665L62.1874 38.8735M14.8663 70.3735L24 61.1758M7.39313 61.3735C11.1045 57.6354 14.5451 54.1699 17.8178 50.8735M25.4388 75.8735L33.5 67.7572" stroke="#F2D9D9" stroke-width="1.6"></path> <path d="M28.0003 3.37354C28.3969 4.03453 28.6223 5.37954 28.5372 7.87354M51.0003 77.8735C58.0003 72.8735 53.5003 68.8735 48.5004 66.8735C48.097 66.7122 47.5901 66.4883 47.0005 66.2015M28.5372 7.87354C28.4076 11.668 27.559 18.1222 25.5003 28.8735C21.3502 50.5469 40.0039 62.7991 47.0005 66.2015M28.5372 7.87354C32.1916 8.87354 38.5005 9.37354 41.5004 16.3735C43.8058 21.7527 46.5005 26.8735 54.5005 27.3735C62.5005 27.8735 60.5005 30.8735 59.0005 33.3735C57.5005 35.8735 59.0005 35.8735 60.5005 36.8735C62.0005 37.8735 63.0005 39.3735 61.0005 40.8735C59.4005 42.0735 56.1671 44.7069 55.5005 45.3735M63.5005 42.3735C62.6671 43.7069 61.6005 46.4735 64.0005 46.8735C67.0005 47.3735 71.0005 51.8735 66.0005 54.3735C61.0005 56.8735 52.0005 58.0295 47.0005 66.2015M24.5005 9.87354C23.8338 13.2069 21.6005 22.7735 18.0005 34.3735C13.5005 48.8735 19.0005 65.8735 45.0005 71.8735M17.0001 22.3735C16.6668 24.3735 15.4001 28.9735 13.0001 31.3735C10.0001 34.3735 5.50009 38.3735 8.50009 48.8735M31.0005 29.8735C31.6672 27.8735 34.1005 23.3735 38.5005 21.3735M43.5005 27.8735C43.0005 29.7069 40.9005 33.3735 36.5005 33.3735" stroke="#FF666A" stroke-width="1.6"></path> <path d="M79 40.1736C79 18.6345 61.5391 1.17358 40 1.17358C18.4609 1.17358 1 18.6345 1 40.1736C1 61.7127 18.4609 79.1736 40 79.1736C47.9241 79.1736 55.2962 76.8103 61.45 72.7502" stroke="#FF666A" stroke-width="1.6"></path> <path d="M79 54.3735L69.0109 66.3735L63 62.2116" stroke="#FF666A" stroke-width="1.6"></path> </svg> 